<svg enable-background="new 0 0 500 500" viewBox="0 0 500 500" xmlns="http://www.w3.org/2000/svg"><path d="m1 174c0-56.652641.036055-112.805367-.090551-168.957724-.007509-3.330355.53589-4.144574 4.046552-4.142118 163.958977.114726 327.918053.118362 491.877007-.014116 3.834869-.003098 4.246338 1.068601 4.244507 4.444964-.088654 163.792392-.090454 327.584827.009857 491.377185.002136 3.488892-.570313 4.40036-4.293579 4.397583-163.792328-.122467-327.584778-.123535-491.377115.000427-3.935158.00296-4.505158-1.09143-4.501654-4.687439.104569-107.306152.084976-214.612488.084976-322.418762z"/><path d="m236.466675 493.715515c-17.713745-1.442596-34.930542-3.337738-51.721588-8.233063-14.967911-4.36383-29.487702-10.063842-43.289704-16.99057-17.787376-8.926819-34.17472-20.222137-49.290359-33.503845-14.268692-12.537567-26.927223-26.343536-38.140576-41.520904-7.747264-10.485993-14.798736-21.532319-20.37334-33.326142-10.655636-22.543487-18.721967-46.006988-22.535739-70.740417-1.150015-7.458191-1.415551-15.052796-2.03838-23.021241.89005-9.445892.253665-18.473495.210823-27.911193 1.066975-16.619614 2.659624-32.735733 7.155034-48.471314 7.278134-25.47615 17.361128-49.562774 32.213251-71.693161 7.916474-11.795936 16.62481-22.795128 26.399071-33.031097 13.293327-13.92128 28.011498-25.955265 44.165054-36.570881 18.816292-12.365482 39.184456-21.064585 60.23449-28.265373 12.901153-4.413224 26.269104-7.825068 39.931366-8.987522 5.263153-.447818 10.58342-.398694 16.236175-1.361304 9.812775.966129 19.235566.099024 29.060059.684149 15.795837.398055 30.769806 2.740293 45.691834 6.697336 17.990936 4.770867 35.37149 11.077557 51.689361 19.735392 17.083862 9.064251 33.230713 19.621555 47.842346 32.716686 10.311371 9.241135 19.527283 19.37532 28.815491 29.463661 8.377441 9.099076 14.817047 19.804955 21.195587 30.402382 10.529724 17.494278 18.217621 36.291351 24.107605 55.789795 4.558502 15.090561 7.815888 30.476578 7.962128 46.349869.014313 1.552704.482391 2.889587.922851 4.706817-.895599 9.4236-.229065 18.443161-.209472 27.874939-.88321 22.7016-4.501251 44.47934-12.174195 65.5159-7.638397 20.941925-17.15567 40.788269-29.868866 59.293396-10.278015 14.960449-22.269287 28.222473-35.226318 40.632752-16.493713 15.797698-35.138336 28.807922-55.747131 38.780975-20.429962 9.886536-41.6427 17.669128-64.006073 21.876861-6.929932 1.303894-14.031739 1.868836-21.083374 2.269135-2.989655.169739-5.817475 1.176544-9.229828 1.04245-9.772476-.866425-19.129349-.257935-28.897583-.204468z" fill="#987963"/><path d="m236.508408 493.957489c2.40007-2.02832 5.593505-.804779 8.606735-.874481 6.412796-.148407 12.834717.096985 19.534881.485351-9.038711.356415-18.359375.408478-28.141616.38913z" fill="#c7b5aa"/><path d="m264.899323 10.588581c-9.302125.315537-18.808899.236523-28.586762-.162826 9.279984-.290799 18.831055-.26126 28.586762.162826z" fill="#beafa3"/><path d="m9.048046 238.509949c1.945854 2.763412.776027 6.257614.853189 9.612701.132081 5.743134-.100356 11.49466-.478047 17.531464-.347865-8.701752-.397402-17.692337-.375142-27.144165z" fill="#bdac9d"/><path d="m492.925232 264.470459c-1.999115-3.78653-.629364-8.245178-.821228-12.595886-.20932-4.746247.077911-9.51442.465423-14.545166.351838 8.712051.386933 17.696258.355805 27.141052z" fill="#c7b5aa"/><path d="m238.550552 474.308044c-4.446457 2.058899-8.454712-.231811-12.253479-.664428-30.455291-3.468109-59.393692-12.207886-85.922378-27.730622-12.446678-7.282959-24.135094-15.804382-35.214752-25.190673-16.047112-13.594422-29.219429-29.516419-40.810761-46.934418-9.541443-14.337708-16.452961-29.905976-22.889892-45.802002-6.060719-14.96695-8.602616-30.694-11.336459-46.403107-.844673-4.853638-.798292-9.862366-1.220842-15.254181-.823574-4.496368-.145332-8.584289-.680344-13.010589.757719-2.874634.78023-5.489868.792839-8.139603.12823-26.945709 5.598648-52.770767 16.07024-77.599899 7.713295-18.288971 17.237912-35.602066 29.438538-51.179261 10.652321-13.600379 22.582222-26.061355 36.316315-36.887504 10.73851-8.464836 21.69915-16.609715 33.661308-22.938995 20.270554-10.725335 41.509613-19.443764 64.293671-23.419362 9.053329-1.579721 18.281601-2.157011 27.878265-3.25428 4.490219-.813364 8.576736-.145651 13.006165-.671404 2.733062.562321 5.138336.787724 7.640289.798768 31.02951.13693 60.304291 7.405603 88.339538 20.731134 18.555115 8.819511 35.251648 20.092785 50.929688 33.245205 19.730011 16.551666 35.221588 36.506027 48.005157 58.604034 11.099854 19.18747 19.345337 39.704758 23.723389 61.447403 2.388764 11.86319 4.778076 23.875794 4.776581 36.588196.794647 7.739319.243927 15.035858.222046 22.778137-2.145447 31.425751-9.547943 60.88028-23.833283 88.617523-8.63681 16.769745-19.243805 32.000245-31.352234 46.423127-10.381317 12.365661-22.102233 23.273681-35.055725 32.562591-10.544433 7.561402-21.441742 14.765412-33.426605 20.385773-12.762298 5.984924-25.560394 11.657379-39.088775 15.437225-10.68863 2.98645-21.800232 4.162934-32.70163 6.23877-4.020508.765564-8.258392.027832-12.493958 1.895416-9.050171-1.152893-17.725433-.123505-26.812912-.672974z"/><path d="m238.406586 474.440552c8.52034-.26175 17.338562-.244385 26.346679.162231-8.556335.298401-17.302551.207611-26.346679-.162231z" fill="#e6d9cf"/><path d="m473.440796 263.568909c-.313446-6.977875-.360779-14.262558-.348816-22.00647 1.850067 6.88681.759918 14.305054.348816 22.00647z" fill="#edddd2"/><path d="m27.961979 253.410675c2.362608 3.384827.410276 7.574036.932737 12.012604-1.650327-3.45163-.537561-7.558991-.932737-12.012604z" fill="#f5e8de"/><path d="m249.589935 28.978333c-3.39479 2.279293-7.57225.448801-12.017364.911445 3.44957-1.725798 7.563064-.50147 12.017364-.911445z" fill="#f5e8de"/><path d="m243.461792 462.707336c-14.859497-.530181-29.315109-1.963623-43.235718-5.840606-14.942596-4.161591-29.956039-8.530915-43.693313-16.048096-16.255036-8.894928-31.780266-18.726501-45.75-31.199066-13.804581-12.325134-25.692589-26.092346-35.953179-41.302948-15.075779-22.348816-25.074138-46.992676-30.625416-73.300476-2.228176-10.559448-2.833885-21.461273-4.131412-32.63913.892754-7.117676.262398-13.828064.208885-20.928665 1.405117-24.778915 6.256874-48.506363 15.781029-70.99202 7.530258-17.778228 17.143776-34.488723 29.417755-49.589409 6.574364-8.088447 13.565292-15.749176 21.106346-22.900047 12.759964-12.099724 26.991142-22.119568 42.440926-30.601005 18.505691-10.159027 38.049072-17.164635 58.591537-21.727906 8.854233-1.966865 17.886292-2.316784 26.801102-3.663444 1.93547-.29237 3.863968-.630917 6.215286-.903187 6.476837.934639 12.574814.147766 19.04953.702992 18.223877.136997 35.275086 4.285587 52.328552 8.991432 9.931641 2.7406 19.610016 6.171035 28.687836 10.689838 14.468872 7.202381 28.536896 15.252483 41.107758 25.688084 7.373382 6.120964 14.570678 12.384964 21.169159 19.318603 12.411651 13.042099 22.92218 27.445664 31.979156 43.050141 10.08429 17.374435 16.674957 35.995895 21.399933 55.341766 2.524841 10.337708 4.584412 20.814209 4.722168 31.554932.029053 2.266616.584106 4.526474.847107 7.222198-.856354 5.454239-.274872 10.506287-.215637 15.930206-.927063 20.450867-4.453644 40.003205-10.622528 59.201386-8.019318 24.956726-20.813477 47.216125-37.129242 67.417297-17.495819 21.662201-38.929749 38.719574-63.565277 51.868714-22.789124 12.163635-46.947815 19.570984-72.454773 23.186828-5.712281.809815-11.546753-.001037-17.560029 1.69516-5.780593-.91098-11.1613-.254181-16.917541-.223572z" fill="#987861"/><path d="m40.03804 241.507294c1.971161 6.27034.636177 13.104934.399017 20.166229-.368453-6.387116-.41925-13.045853-.399017-20.166229z" fill="#cabab1"/><path d="m259.888733 41.593666c-5.964249.317375-12.129044.239388-18.563675-.157963 5.941162-.292045 12.15213-.264724 18.563675.157963z" fill="#cab8ac"/><path d="m243.528778 462.937378c4.932694-1.856323 10.442337-.666992 16.160675-.38031-5.062195.369751-10.381714.408203-16.160675.38031z" fill="#d2c3b6"/><path d="m461.944702 259.488464c-1.791077-4.592132-.75589-9.758041-.383179-15.154022.360321 4.717728.40506 9.705826.383179 15.154022z" fill="#cfbfb6"/><path d="m236.663193 140.006409c13.211517-1.278839 26.038559-.431259 38.85292-.695969 2.498841-.05162 5.000153.024612 7.499481-.01297 11.593049-.174316 9.466004 1.385864 9.52295-9.603439.061065-11.791191 4.992065-16.606621 11.874511-19.299912 9.256531-3.622345 22.181611-.532959 27.733094 6.007637 3.512634 4.138512 3.410827 9.249077 3.532196 14.223748.24176 9.910659-1.324372 8.518569 8.859039 8.683288 5.657715.091492 11.362213-.172714 16.96167.463181 12.282562 1.39479 19.669556 9.823822 19.736542 22.25093.107818 19.998703.035797 39.998383.036285 59.997651.000946 39.331924.022827 78.663864-.041382 117.995681-.005676 3.481202.507813 6.932129-.016662 10.459015-1.722992 11.586426-9.585511 19.195404-21.271424 19.234436-39.996643.133698-79.99414-.006317-120.443054-.152527-3.490082-3.67218-3.000687-7.301757-.272735-11.230774 3.243026-1.52716 6.279006-1.197906 9.257583-1.200103 34.311142-.025574 68.622269-.014893 102.933426-.015961 2.331787-.000061 4.665833.046967 6.993988-.093109 5.631714-.338776 8.869995-3.359772 9.534058-8.949677.21582-1.817108.16159-3.659271.161865-5.491638.005676-38.808227.00296-77.616485.001587-116.424728-.000031-1.16594-.09961-2.337036-.036102-3.496063.187347-3.419571-1.41919-4.817353-4.783356-4.734711-9.482483.232941-18.96225-.194916-28.450836-.14238-24.472168.135437-48.948059.257065-73.420441.041336-7.303177-.064377-14.602448-.845337-22.343887-1.624344-5.529099-4.83078-6.126007-7.287643-3.058853-12.752105 3.213195-1.643662 6.254165-1.305252 9.230224-1.307312 37.303589-.025849 74.607178-.015213 111.910767-.017014 1.831817-.000092 3.675018-.13533 5.493072-.000961 4.190399.309677 5.530915-1.712281 5.490723-5.670883-.111511-10.989594.111847-21.983078-.106079-32.971833-.141236-7.119507-3.454865-10.395645-10.392456-10.549682-4.994202-.110886-9.992462.02333-14.98645-.033219-3.416016-.038665-4.802369 1.445221-4.756134 4.805954.043426 3.159226.131805 6.333191-.145447 9.487534-.419251 4.770523-1.763886 6.372726-6.463257 6.527786-11.150726.36792-22.313599.316391-33.466034.028854-4.816773-.124191-6.146698-1.632171-6.575043-6.371048-.27008-2.987701-.272094-6.003005-.108185-8.986343.225739-4.108169-1.519134-5.56427-5.572998-5.536285-13.488067.09317-26.977996.06073-40.467102.022339-2.655914-.007554-5.339599.189407-8.351516-.910279-3.512558-4.023147-2.942673-7.855316-.086548-11.954101z" fill="#ece3d1"/><path d="m133.354156 366.906616c-8.033622-2.73114-12.373107-9.207123-12.381469-18.095489-.036659-38.98404-.026818-77.96814-.025604-116.95221.00074-23.990158-.128083-47.981735.109481-71.96962.075455-7.619308 3.517098-13.703109 11.192658-16.997879 3.560104-1.186111 4.234741 1.381241 5.184509 3.370331.869537 1.821045.636429 3.813263.415726 6.177399-3.783264 5.31752-4.35907 10.901016-4.182175 16.850113.270538 9.098114.055725 18.209778.07962 27.315689.006669 2.540253.104432 5.028168 3.122727 6.68103 2.038101 4.036759.742813 7.912766.679733 12.155976-2.923874 2.723648-3.736374 5.640777-3.729233 9.210586.07956 39.73552.052109 79.471268.040406 119.206955-.000992 3.36673.451614 6.619232 1.650665 10.227234-.851959 4.461243.808029 8.884308-2.157044 12.819885z" fill="#cbab94"/><path d="m185.69104 110.232986c13.116486-3.144805 23.068512 4.10125 24.067856 17.016968.139801 1.806626.275635 3.668976.001312 5.441773-.800629 5.173996 1.336472 7.304229 6.869675 6.837433.886368.667007 1.281097 1.429122.895462 1.914123-2.037522 2.562515-2.016815 5.268311-.977783 8.19101.279922.787399-.249649 1.563461-1.213303 2.362533-2.621231 1.118897-3.482529 2.8508-3.515091 5.257935-.044708 3.303558.104843 6.613403-.134445 9.910293-.350983 4.835923-1.616562 6.195755-6.307068 6.500428-3.289719.213699-6.605469.349594-10.279388-.496872-1.363282-.534943-1.908844-1.402359-2.642365-2.061295-5.282364-4.745163-5.309738-4.840042-1.010437-10.749329 4.020096-1.891067 5.057419-4.768554 4.924866-8.692123-.24112-7.137085-.022309-14.28865-.083634-21.433548-.057052-6.64788-.429062-7.103523-7.048599-9.398918-3.197372-2.971314-5.96756-5.762795-3.547058-10.600411z" fill="#ddcab7"/><path d="m185.719559 109.846558c-.294007 3.620971 1.046478 6.633293 3.231582 9.756713-.33049.921914-.837524 1.455437-1.490295 1.498864-6.671951.443794-8.311432 4.795196-8.33136 10.84391-.94426 1.784912-1.051636 3.234009.012604 5.036621 1.007706 5.62851.598144 10.955277.51242 16.25032-.059097 3.65207.92183 6.125412 5.092713 7.125931 2.035477 3.914139 1.397339 7.676377.507675 11.79335-2.890579 1.945527-5.622192 1.7314-8.809616.743638-4.780441-3.933869-7.001938-8.380433-5.152451-14.231614.571717-1.808685-.134262-3.580322-.300338-5.377105-1.110916-12.018509-1.48906-24.038163.604522-36.446213-.888733-1.179993-.298553-1.616196.655899-2.042626 1.216996-.156448 1.744523-.931762 2.462586-1.917022 2.418106-2.663567 5.333771-3.14869 8.848129-2.998566.546295.422615.810257.54995 1.335663.221855.138687-.200821.591492-.280121.820267-.258056z" fill="#dac4b0"/><path d="m171.339508 116.471199c2.092621 2.963074.717804 6.07383.687973 9.154137-.075684 7.814941-.367096 15.651504.098694 23.439285.288544 4.824234 1.841003 9.443909.027664 14.410522-1.186966 3.250992 3.011643 4.793488 3.845245 7.960129-6.562789 4.554474-11.424652 2.205628-11.775085-5.34935-.077209-1.66449-.036926-3.331939-.046036-4.998077-.039184-7.174774-.039856-7.174774-7.021042-9.481705-2.58583-3.910431-2.408844-7.644104-.451706-11.758865 10.051972-1.397614 9.965378-1.399307 10.161133-11.435074.084534-4.332665-.830353-9.158333 4.47316-11.941002z" fill="#d7bea8"/><path d="m156.608734 139.387054c.440643 3.599503.422028 7.066178.409668 10.978226-1.187836 2.188477-3.076538 2.384888-4.882141 2.354233-4.794128-.081375-9.604752.780243-14.762787-.498596-1.419968-3.324295-.434799-7.190445-4.397217-9.259827 2.808441-3.645172 7.285446-3.3797 11.4151-3.740555 3.888703-.339782 7.836411-.004562 12.217377.166519z" fill="#d2b59f"/><path d="m216.348358 151.162872c-2.9487-4.15683-3.667511-7.738144.677689-11.17218 6.394699-1.090942 12.771011-.711197 19.593567-.409515-.813767 3.456482-.665177 6.891189-.603791 10.744827-6.304855 4.161819-12.820022 2.958923-19.667465.836868z" fill="#e6dbc7"/><path d="m178.338852 369.23349c-7.98082.394012-15.668106.462158-23.812958.454285-3.32048-4.154084-.498169-7.42334 1.437637-11.159821 7.066117-2.192291 13.836121-1.480041 21.024018-.602905 3.330475 3.495758 2.043304 7.289612 1.351303 11.308441z" fill="#d7bda8"/><path d="m178.502106 369.657471c-.61641-3.324799-2.167969-6.542481-.503388-10.170533 1.118225-1.884246 2.780442-2.207428 4.428299-2.218627 5.759888-.039277 11.546402-.737061 17.694992.752441 3.055085 3.709198 1.661103 7.26593.251251 11.145355-7.350692 1.095795-14.385879.574402-21.871154.491364z" fill="#ddc8b4"/><path d="m155.737854 358.753052c.887527 3.853485-2.369415 6.585449-1.689209 10.48645-6.94545.685638-13.981613 1.727203-20.836395-1.90567.645202-1.905579 1.101242-3.570984.27272-5.400513-.91777-2.026642-.260437-3.810394 1.244583-5.706299 7.026047 1.159851 14.03418.348389 21.008301 2.526032z" fill="#cfb29d"/><path d="m200.496933 369.601074c-.380096-3.326385-.994659-6.605224.449524-10.105163 1.735336-2.446686 4.125763-2.31662 6.368805-2.302094 4.712738.030457 9.454208-.518677 14.558594.697724 3.487655 3.966461.546402 7.406066-.521393 11.277191-7.008621 1.044006-13.707215.557586-20.85553.432342z" fill="#e3d3c0"/><path d="m221.483231 369.582703c-.850815-3.515839-.202271-6.719727 1.469345-10.106446 5.020584-3.63562 10.185867-2.73761 15.720886-.743164-.02742 3.581452-.299957 6.787171.360733 10.3526-5.679947 1.116974-11.391296.622376-17.550964.49701z" fill="#e8dcc9"/><path d="m174.512314 112.688904c.384109 1.027191.147644 1.97332-1.640122 2.110489.177277-.672745.754059-1.325524 1.640122-2.110489z" fill="#d7bea8"/><path d="m184.770172 109.881851c-.020172.138268-.308151.254593-.698791.206253.075225-.185844.253112-.207008.698791-.206253z" fill="#ddcab7"/><path d="m239.472748 359.047791c-5.48819.02243-10.511597-.016022-15.9982.002136-7.485519.020508-14.507843-.015534-21.99533-.000183-7.821152.019592-15.17714-.012238-22.998703.00177-7.487473.016906-14.509369-.011963-21.996964-.001892-4.699341-.002442-8.933075-.036713-13.166595-.087708-2.838013-.03418-5.474762-.680511-7.988312-2.790375-2.641846-3.214019-3.368927-6.640655-3.362961-10.451202.06488-41.45343.067169-82.907044-.014557-124.360413-.006637-3.365081.213577-5.986618 4.786011-6.014831 1.894745-2.103745 4.111999-2.150742 6.268051-2.176193 5.322586-.062836 10.647461-.204636 16.447296.152755 8.504776-.31961 16.531998-.390625 25.040405.045166 9.170792-.444305 17.862061-.415069 27.038544.016465 7.34259-.59961 14.212341-.224198 21.077088-.210053 1.643463.003387 3.27185.24086 5.007629 1.636154 21.830109.920792 43.288574.951706 64.75711.720123 21.288514-.229629 42.58313.149216 63.874817.112732 3.215516-.005508 3.851593 1.290619 3.847138 4.160401-.065643 42.448181-.010925 84.896576-.074921 127.344757-.011749 7.791321-4.303955 11.769775-12.226837 11.77597-39.285309.030701-78.570618.044068-118.320709.124421z" fill="#987760"/><path d="m215.597137 150.839508c6.791718-.027893 13.142823.021393 19.958329-.007202 17.620453-.016312 34.777572.168716 51.931686.015869 4.047028-.036056 5.749329.908707 5.362854 5.213226-.356079 3.965943.092835 7.998093-.114868 11.985352-.163178 3.131714 1.107941 3.97818 4.076691 3.945373 11.660278-.12886 23.323669-.131225 34.983886-.001037 2.983368.033295 4.218872-.833695 4.057343-3.955231-.214905-4.153961.105377-8.3358-.114624-12.489227-.174652-3.29834.665253-4.826706 4.363098-4.67128 6.48587.272644 12.992065.01738 19.488312.098282 5.626312.070068 10.28952 4.312958 10.368561 9.924515.187744 13.324981.018859 26.654708.137176 39.981231.025421 2.868195-1.384094 3.219193-3.701385 3.198395-8.162568-.073242-16.326172-.031723-24.48938-.025345-34.984772.027298-69.969513.057602-105.416352.155426-3.053192 2.087235-6.123001 1.663758-9.067154 1.652741-4.797515-.017945-9.601806.281357-14.87445-.225006-8.504288.445526-16.528809.374694-25.033493-.007904-9.15622.44136-17.833664.419281-26.994538-.012513-7.908004.078125-15.376327 1.305085-23.102203-1.168548-4.540802.149429-5.603561-1.77089-5.506866-5.778031.27127-11.243591.285919-22.502807.005889-33.745987-.123809-4.971664.873276-9.130844 4.929993-12.673278 6.435028-2.15535 12.886475-.846207 19.712158-1.37468 9.621414.354553 9.621399.354553 9.61995 9.748673-.000122.825866-.016419 1.65213.002792 2.477554.230972 9.926987-1.789581 8.853119 9.382751 8.756805 3.153992-.031097 5.854218.003159 9.000153-.028763 3.067474-1.962097 5.820343-1.886627 9.048737-.339386 4.369537.342698 8.352203.273636 12.314193.527375 3.152207.201919 4.051865-1.17009 3.920838-4.090561-.17067-3.803909.242172-7.648865-.122559-11.425293-.417236-4.319763 1.007157-6.260117 5.872482-5.661545z" fill="#987761"/><path d="m303.900208 125.568268c.639282-3.811356 3.081726-5.081253 6.085937-5.340264 2.640656-.227676 5.330353-.225173 7.972931-.010803 3.803711.308556 6.12561 2.192757 6.103149 6.381508-.053497 9.976883-.077301 19.955078.039704 29.930954.032226 2.750641-.837006 3.916657-3.695008 3.80603-4.150879-.160659-8.322723-.212738-12.466888.021119-3.416779.192825-4.216278-1.317017-4.169281-4.417283.151062-9.975006.084228-19.953277.129456-30.371261z" fill="#987862"/><path d="m211.723541 204.552872c8.00351-.340348 15.688523-.389939 23.838196-.357956-1.698761 3.975021 1.176758 6.925705 2.3909 10.565185-8.324768.398316-16.683792.425095-25.511505.406266-3.400727-3.31987-3.372925-6.757554-.717591-10.613495z" fill="#e7dbc8"/><path d="m137.00563 204.543518c7.382493-.413071 14.741715-.431961 22.56746-.383255 3.390762 3.329712 3.969116 6.716385.705444 10.606125-7.636643.328842-14.969421.342483-22.765686.353027-2.364166-3.383621-1.373627-6.783157-.507218-10.575897z" fill="#d3b59f"/><path d="m177.649689 133.347015c.243194-1.179229.31665-2.003402.328781-2.828445.134903-9.180374 1.168991-10.244583 10.604645-10.502663 8.458084.374535 9.57518 1.523575 9.582275 9.420281.007446 8.284485-.230392 16.578277.099808 24.849609.171478 4.295975-.943192 6.593918-5.892761 6.461716-2.299286 1.911712-4.379715 2.172195-7.003937.460861-7.461792-.53714-7.457489-.53714-7.445755-7.542068.009338-5.575425.006485-11.150864-.035965-17.192368-.515442-1.1772-.691437-1.938171-.237091-3.126923z" fill="#987861"/><path d="m184.984924 161.307098c2.052597-.439544 4.097382-.468856 6.578888-.459289.269409.666.301132 1.494552-.097061 1.88797-2.875702 2.841064-2.790665 4.992431 1.282364 6.400558.914108.31604 1.134399 1.090866 1.241455 2.281937-2.684875.387802-5.387146.431885-8.535431.410217-1.331711-3.411423-1.717544-6.758697-.470215-10.521393z" fill="#ddc8b4"/><path d="m177.54184 133.062469c.342208.685151.378357 1.440415.357238 2.570527-2.001724-.216294-2.595291-1.092194-.357238-2.570527z" fill="#d7bea8"/><path d="m226.360245 337.295197c-3.45134-.181031-4.822998-1.43985-5.708924-4.694947-5.710159-20.980743-7.288726-42.042145-3.883804-63.655456 1.801804-11.437195 8.119598-19.306275 16.255051-26.452652 2.124176-1.865906 4.762024-3.457672 6.159485-5.779816 3.656784-6.076523 8.956054-6.356354 15.069717-5.637039 10.063904 1.184097 20.155945 2.202835 30.262878 2.907196 3.624695.252594 3.071076 1.902191 2.309601 4.491409.126984 5.66536-2.02655 10.437866-3.595886 15.309067-1.065887 3.308502-3.970367 3.579346-7.01236 3.261932-7.9505-.829589-15.878997-1.858413-23.808609-2.843536-3.73555-.464066-5.512207.93541-6.748001 4.206451-3.579269 9.47406-3.3479 19.325348-2.776016 29.127961.435684 7.468109 1.639435 14.893249 3.457657 22.188781.532333 2.135926 1.047699 4.222687 3.444702 5.696839 11.738495 1.259338 23.121674 2.426605 34.529755 3.248626 3.585449.258332 4.356842 1.458527 2.839752 4.907258.712982 5.96173-1.967957 10.678375-4.062836 15.464111-1.143432 2.612152-4.029785 2.521454-6.530182 2.717499-6.989288.547943-13.88977-.729889-20.827667-1.113678-8.422821-.465912-16.859695-1.010834-25.258407-1.923859-1.329545-.144531-2.634568-.326263-4.115906-1.426147z" fill="#ebe3d0"/><path d="m250.103912 315.240265c-2.511657.858856-4.411178.726257-5.070907-2.570892-2.549027-12.739075-4.633759-25.491028-4.078736-38.5672.278901-6.57074 1.718934-12.800018 4.09665-18.894364.919509-2.356826 2.187927-3.47322 4.831832-3.121643 9.04599 1.202927 18.132264 2.125962 27.151307 3.496796 3.173095.482285 4.473114-.221405 5.217804-3.398193 1.019714-4.34993 2.662841-8.553727 4.276275-13.082901 6.385559 2.350723 6.385559 2.350723 4.523804 9.459915-3.564819 13.61235-3.537933 13.39418-17.607575 11.660385-6.069183-.747955-12.201599-1.03302-18.238937-2.139526-2.247696-.411957-3.265945.914459-4.050537 2.803466-4.8022 11.561615-4.765076 23.644928-3.700958 35.773255.534149 6.087951 1.727325 12.118042 2.649978 18.580902z" fill="#b5997e"/><path d="m226.062225 337.385834c16.639481.650879 33.3526 1.553497 50.041565 2.783539 4.327759.318939 6.243958-.985016 7.028778-5.29776.642731-3.5318 2.334473-6.872681 3.772828-10.604218 1.544464-.28009 2.87741-.227234 4.210113-.234009 2.544434-.012939 3.286011 1.270203 2.497833 3.538483-1.856079 5.341705-3.812103 10.649109-5.627105 16.004516-.760437 2.243805-2.439789 2.522187-4.366242 2.400818-14.563934-.917633-29.125931-1.866394-43.690109-2.780212-2.158447-.135437-4.351853-.38269-6.482483-.150543-4.157333.452942-6.776703-.894623-7.385178-5.660614z" fill="#b5987e"/><path d="m211.576233 204.179138c.182205 3.428894-1.038483 6.768265.395767 10.533936-8.68515.425567-17.370773.443451-26.525253.423034-3.069916-3.88591-2.042526-7.246658 1.253174-10.62799 8.362518-.3237 16.38652-.367829 24.876312-.32898z" fill="#e0cdb9"/><path d="m186.571625 204.153015c-.208634 3.408722-2.408631 6.429871-1.586411 10.507965-8.027862.448776-16.048385.460709-24.539734.44661.813233-3.378754.808228-6.740967-.401306-10.495865 8.683823-.433991 17.372238-.484116 26.527451-.45871z" fill="#d9c1ac"/></svg>